# Exported from Godot Engine
o ability_hex
v 0.999979 0.084707 -0.000013
vt 0.072862 0.076173
vn 0.661454 0.000004 0.749986
v 0.999979 -0.084707 -0.000013
vt 0.072862 0.076173
vn 0.661454 0.000004 0.749986
v 0.500000 0.084707 0.866025
vt 0.072862 0.076173
vn 0.661454 0.000004 0.749986
v 0.500000 -0.084707 0.866025
vt 0.072862 0.076173
vn 0.661454 0.000004 0.749986
v 0.500000 0.084707 0.866025
vt 0.072862 0.076173
vn -0.000144 0.000000 1.000000
v 0.500000 -0.084707 0.866025
vt 0.072862 0.076173
vn -0.000144 0.000000 1.000000
v -0.500020 0.084707 0.866025
vt 0.072862 0.076173
vn -0.000144 0.000000 1.000000
v -0.500020 -0.084707 0.866025
vt 0.072862 0.076173
vn -0.000144 0.000000 1.000000
v -0.500020 0.084707 0.866025
vt 0.072862 0.076173
vn -0.661454 -0.000004 0.749986
v -0.500020 -0.084707 0.866025
vt 0.072862 0.076173
vn -0.661454 -0.000004 0.749986
v -1.000000 0.084707 -0.000013
vt 0.072862 0.076173
vn -0.661454 -0.000004 0.749986
v -1.000000 -0.084707 -0.000013
vt 0.072862 0.076173
vn -0.661454 -0.000004 0.749986
v -1.000000 0.084707 -0.000013
vt 0.072862 0.076173
vn -0.661490 -0.000027 -0.749954
v -1.000000 -0.084707 -0.000013
vt 0.072862 0.076173
vn -0.661490 -0.000027 -0.749954
v -0.500020 0.084707 -0.866025
vt 0.072862 0.076173
vn -0.661490 -0.000027 -0.749954
v -0.500020 -0.084707 -0.866025
vt 0.072862 0.076173
vn -0.661490 -0.000027 -0.749954
v 0.999979 0.084707 -0.000013
vt 1.000000 0.500008
vn -0.000015 1.000000 0.000024
v 0.500000 0.084707 0.866025
vt 0.749996 0.000000
vn -0.000015 1.000000 0.000024
v 0.500000 0.084707 -0.866025
vt 0.749996 1.000000
vn -0.000015 1.000000 0.000024
v -0.500020 0.084707 -0.866025
vt 0.249989 1.000000
vn -0.000015 1.000000 0.000024
v -1.000000 0.084707 -0.000013
vt 0.000000 0.500008
vn -0.000015 1.000000 0.000024
v -0.500020 0.084707 0.866025
vt 0.249989 0.000000
vn -0.000015 1.000000 0.000024
v -0.500020 0.084707 -0.866025
vt 0.072862 0.076173
vn -0.000031 -0.000000 -1.000000
v -0.500020 -0.084707 -0.866025
vt 0.072862 0.076173
vn -0.000031 -0.000000 -1.000000
v 0.500000 0.084707 -0.866025
vt 0.072862 0.076173
vn -0.000031 -0.000000 -1.000000
v 0.500000 -0.084707 -0.866025
vt 0.072862 0.076173
vn -0.000031 -0.000000 -1.000000
v 0.500000 0.084707 -0.866025
vt 0.072862 0.076173
vn 0.661490 0.000027 -0.749954
v 0.500000 -0.084707 -0.866025
vt 0.072862 0.076173
vn 0.661490 0.000027 -0.749954
v 0.999979 0.084707 -0.000013
vt 0.072862 0.076173
vn 0.661490 0.000027 -0.749954
v 0.999979 -0.084707 -0.000013
vt 0.072862 0.076173
vn 0.661490 0.000027 -0.749954
v 0.500000 -0.084707 0.866025
vt 0.749996 1.000000
vn 0.000015 -1.000000 0.000024
v 0.999979 -0.084707 -0.000013
vt 1.000000 0.500008
vn 0.000015 -1.000000 0.000024
v -0.500020 -0.084707 0.866025
vt 0.249989 1.000000
vn 0.000015 -1.000000 0.000024
v -1.000000 -0.084707 -0.000013
vt 0.000000 0.500008
vn 0.000015 -1.000000 0.000024
v -0.500020 -0.084707 -0.866025
vt 0.249989 0.000000
vn 0.000015 -1.000000 0.000024
v 0.500000 -0.084707 -0.866025
vt 0.749996 0.000000
vn 0.000015 -1.000000 0.000024
v 0.500000 0.084707 0.866025
vt 0.281941 0.407462
vn -0.000015 1.000000 0.000024
v 0.999979 0.084707 -0.000013
vt 0.490532 0.271702
vn -0.000015 1.000000 0.000024
v -0.500020 0.084707 0.866025
vt 0.320500 0.607446
vn -0.000015 1.000000 0.000024
v -1.000000 0.084707 -0.000013
vt 0.506920 0.682902
vn -0.000015 1.000000 0.000024
v -0.500020 0.084707 -0.866025
vt 0.688502 0.596994
vn -0.000015 1.000000 0.000024
v 0.500000 0.084707 -0.866025
vt 0.711559 0.393194
vn -0.000015 1.000000 0.000024
f 3/3/3 2/2/2 1/1/1
f 4/4/4 2/2/2 3/3/3
f 7/7/7 6/6/6 5/5/5
f 8/8/8 6/6/6 7/7/7
f 11/11/11 10/10/10 9/9/9
f 12/12/12 10/10/10 11/11/11
f 15/15/15 14/14/14 13/13/13
f 16/16/16 14/14/14 15/15/15
f 19/19/19 18/18/18 17/17/17
f 20/20/20 18/18/18 19/19/19
f 21/21/21 18/18/18 20/20/20
f 22/22/22 18/18/18 21/21/21
f 25/25/25 24/24/24 23/23/23
f 26/26/26 24/24/24 25/25/25
f 29/29/29 28/28/28 27/27/27
f 30/30/30 28/28/28 29/29/29
f 33/33/33 32/32/32 31/31/31
f 34/34/34 32/32/32 33/33/33
f 35/35/35 32/32/32 34/34/34
f 36/36/36 32/32/32 35/35/35
f 37/37/37 38/38/38 37/37/37
f 38/38/38 38/38/38 37/37/37
f 39/39/39 37/37/37 39/39/39
f 37/37/37 37/37/37 39/39/39
f 40/40/40 39/39/39 40/40/40
f 39/39/39 39/39/39 40/40/40
f 41/41/41 40/40/40 41/41/41
f 40/40/40 40/40/40 41/41/41
f 42/42/42 41/41/41 42/42/42
f 41/41/41 41/41/41 42/42/42
f 38/38/38 42/42/42 38/38/38
f 42/42/42 42/42/42 38/38/38
